<?xml version="1.0" encoding="UTF-8" standalone="no"?>
<!-- Created with Inkscape (http://www.inkscape.org/) -->

<svg
   version="1.1"
   id="svg1"
   width="2000"
   height="1200"
   viewBox="0 0 1024 683"
   xml:space="preserve"
   xmlns="http://www.w3.org/2000/svg"
   xmlns:svg="http://www.w3.org/2000/svg"><defs
     id="defs1" /><g
     id="g1"><path
       style="fill:#f9f9f9;stroke-width:1.55306"
       d="M 161.96332,482.39418 C 128.74084,476.63187 95.980461,459.98754 70.664879,436.00889 50.917765,417.30461 31.911748,389.16402 22.590104,364.82827 16.638257,349.29014 10.721104,327.29018 9.5645728,316.39933 l -0.8949323,-8.42615 4.9051495,1.11023 c 4.693302,1.06233 4.981917,1.56644 6.684533,11.6809 4.750876,28.22128 20.96846,61.00123 42.654108,86.21428 10.161063,11.81404 16.156466,16.97547 37.897469,32.62633 7.34045,5.28421 30.7023,16.30634 40.8982,19.29589 12.69691,3.72285 36.47978,7.16098 49.76603,7.19435 23.71601,0.0595 58.54159,-9.55364 78.87111,-21.7714 23.57515,-14.16847 42.06078,-31.25661 56.70935,-52.42208 12.95776,-18.7227 26.61013,-53.4274 29.78566,-75.71574 1.47053,-10.32256 3.5592,-10.07778 3.5592,0.41712 0,24.46751 -11.06634,58.1255 -28.39718,86.36933 -7.79339,12.70087 -28.58839,35.77657 -40.98885,45.48452 -18.64063,14.59308 -42.16576,25.77163 -66.8096,31.74629 -12.63402,3.06299 -49.6928,4.3675 -62.2415,2.19098 z m 16.31325,-35.99351 c -2.53111,-2.20344 -3.88975,-4.96841 -3.88975,-7.91588 0,-4.43731 3.85816,-9.93755 6.97064,-9.93755 0.86423,0 1.95359,-1.10284 2.42098,-2.45073 0.46741,-1.3479 2.40445,-2.45073 4.30474,-2.45073 1.90015,0 4.74437,-1.07945 6.32047,-2.39878 4.48294,-3.75243 5.53509,-2.97063 4.59854,3.41662 -0.69017,4.70738 -0.1255,6.99689 2.75948,11.1825 4.53122,6.57473 4.85113,11.40839 0.67484,10.19974 -1.62394,-0.47 -2.95262,-0.18812 -2.95262,0.62635 0,3.30419 -5.55029,1.19195 -7.16329,-2.72613 -1.9893,-4.83191 -1.10412,-7.50338 2.04349,-6.16669 1.47054,0.62455 2.16721,-0.15504 2.16721,-2.42566 0,-4.70781 -2.77855,-6.0607 -5.13206,-2.49878 -1.92111,2.90762 -2.07892,2.90484 -5.06872,-0.0897 -2.98877,-2.99341 -3.0859,-2.99516 -3.0859,-0.0561 0,1.66903 2.06768,5.39554 4.59483,8.28115 2.52712,2.88559 4.14884,6.04526 3.60364,7.0215 -1.6288,2.9165 -9.00188,2.01422 -13.16652,-1.61122 z m -36.36833,-6.32026 c 0,-1.7442 0.66434,-3.62561 1.4763,-4.18098 0.81198,-0.55537 1.47632,-2.82749 1.47632,-5.04915 0,-4.78717 3.03733,-6.50985 7.16609,-4.06441 3.87499,2.29508 5.0798,6.81608 3.2421,12.1654 -1.25796,3.66144 -2.36015,4.30035 -7.41914,4.30035 -4.89732,0 -5.94167,-0.55743 -5.94167,-3.17121 z m 83.58657,0.68157 c -2.956,-3.2714 -3.07262,-5.67947 -0.27517,-5.67947 2.06548,0 4.74627,6.02169 3.36255,7.55313 -0.38339,0.42435 -1.77275,-0.41879 -3.08738,-1.87366 z m 6.8227,-2.38966 c -1.00727,-1.78501 -1.83134,-4.32144 -1.83134,-5.63654 0,-1.3151 -2.32354,-6.65541 -5.16335,-11.86736 -5.46984,-10.03906 -6.33407,-13.56269 -3.32537,-13.55791 3.18393,0.005 15.87022,25.39873 15.87022,31.76691 0,3.58529 -3.37069,3.15706 -5.55016,-0.7051 z m -103.09184,-0.63633 c -1.25073,-3.60717 0.41321,-5.44869 2.66826,-2.95302 1.33148,1.47356 1.33722,2.3869 0.0235,3.84039 -1.31331,1.45349 -1.95358,1.24244 -2.69203,-0.88737 z m 113.58095,-1.3737 c -3.09048,-4.5979 -4.83694,-10.95961 -3.29776,-12.01243 2.30097,-1.57379 8.87891,6.05764 8.38523,9.72794 -0.52791,3.92309 -3.18423,5.11593 -5.08747,2.28449 z m -121.56655,-2.09668 c -1.50523,-2.00717 -1.40441,-2.45073 0.5573,-2.45073 1.31744,0 2.3953,1.10282 2.3953,2.45073 0,1.3479 -0.25082,2.45073 -0.55745,2.45073 -0.30649,0 -1.38433,-1.10283 -2.39515,-2.45073 z m -10.33409,-4.90146 c -1.01082,-1.34791 -2.51074,-2.45072 -3.33318,-2.45072 -2.68983,0 -8.477213,-8.25013 -8.477213,-12.08462 0,-2.06094 1.214853,-4.96392 2.699713,-6.45109 5.1074,-5.11537 11.41887,-2.22427 6.65457,3.04832 -2.32665,2.57491 -2.31721,3.08898 0.14909,8.15735 1.44782,2.97508 3.88769,5.7726 5.42216,6.21668 3.19235,0.92389 3.83246,6.01481 0.7563,6.01481 -1.11845,0 -2.86062,-1.10284 -3.87144,-2.45073 z m 20.66817,0.81691 c 0,-0.8986 0.66434,-1.63382 1.47631,-1.63382 0.81196,0 1.47629,0.73522 1.47629,1.63382 0,0.8986 -0.66433,1.63382 -1.47629,1.63382 -0.81197,0 -1.47631,-0.73522 -1.47631,-1.63382 z m 117.63281,-4.493 c -2.05633,-5.56697 -2.04497,-6.31346 0.12401,-8.16911 3.47004,-2.96834 4.1667,-2.63749 7.46195,3.54353 2.82874,5.3059 2.84868,5.71525 0.39875,8.1691 -3.89048,3.89649 -5.50069,3.18194 -7.98499,-3.54352 z m -30.4206,-0.23649 c -3.44835,-5.35955 -4.48323,-10.39885 -2.38393,-11.6087 1.812,-1.0443 8.17855,9.31841 8.17855,13.31216 0,4.39284 -2.30892,3.71411 -5.79462,-1.70346 z m -96.06999,-0.17198 c 0,-0.89859 0.62507,-1.63381 1.38905,-1.63381 0.76412,0 1.79976,0.73522 2.3017,1.63381 0.50179,0.89861 -0.12401,1.63384 -1.3892,1.63384 -1.26593,0 -2.30155,-0.73523 -2.30155,-1.63384 z m 11.81038,-2.25787 c 0,-1.34792 0.66434,-2.90513 1.4763,-3.46048 0.81197,-0.55538 1.47631,0.0931 1.47631,1.44095 0,1.34791 -0.66434,2.90513 -1.47631,3.4605 -0.81196,0.55537 -1.4763,-0.0931 -1.4763,-1.44097 z m -19.19187,-0.91333 c 0,-0.84558 0.66433,-1.9918 1.4763,-2.54715 0.81196,-0.55538 1.47629,0.13642 1.47629,1.53738 0,1.40094 -0.66433,2.54716 -1.47629,2.54716 -0.81197,0 -1.4763,-0.69182 -1.4763,-1.53739 z m 143.65404,-4.15246 c -2.22211,-5.15716 -2.27483,-6.1393 -0.39905,-7.45225 3.19176,-2.23417 3.78657,-1.98221 6.62032,2.80409 1.8005,3.04094 2.15614,5.11923 1.17159,6.84651 -2.55976,4.49113 -4.79708,3.82586 -7.39286,-2.19835 z m -27.82336,-5.14164 c -3.48407,-6.02775 -4.81598,-9.75135 -3.86466,-10.80423 2.09783,-2.32173 3.93404,-0.54445 8.23376,7.96946 7.28878,14.43238 3.68588,16.77006 -4.3691,2.83477 z m -104.02031,5.11311 c 0,-1.34848 1.30713,-2.45072 2.90627,-2.45072 1.97676,0 2.63444,0.78376 2.05647,2.45072 -0.46739,1.34792 -1.77524,2.45074 -2.90624,2.45074 -1.13114,0 -2.0565,-1.10282 -2.0565,-2.45074 z m -7.91545,-3.26763 c -0.57797,-1.66696 0.0797,-2.45072 2.05647,-2.45072 1.59927,0 2.9064,1.10223 2.9064,2.45072 0,1.3479 -0.92549,2.45074 -2.05648,2.45074 -1.13115,0 -2.439,-1.10284 -2.90639,-2.45074 z m 123.50463,-3.29813 c -1.45873,-2.26325 -4.11725,-6.08761 -5.9077,-8.49853 -3.50369,-4.7179 -2.70296,-7.58872 2.54011,-9.10611 2.26568,-0.65571 3.85684,1.05868 7.4711,8.04997 4.59632,8.89063 4.85526,13.66971 0.74082,13.66971 -1.20555,0 -3.38544,-1.85177 -4.84433,-4.11504 z m -129.36805,1.392 c -1.79798,-1.98988 -1.01716,-5.44605 1.23035,-5.44605 1.2302,0 2.21445,1.45228 2.21445,3.26763 0,3.25497 -1.57315,4.24977 -3.4448,2.17842 z m 150.5172,-8.13485 c -2.97533,-5.07323 -5.10813,-9.5578 -4.7395,-9.96574 0.36863,-0.40794 3.00116,0.10963 5.85011,1.15023 3.87028,1.41362 5.585,3.25043 6.78228,7.26566 1.56059,5.23309 0.85272,10.77393 -1.37665,10.77393 -0.60867,0 -3.5409,-4.15084 -6.51624,-9.22408 z m -12.61482,-2.29715 c -4.68296,-7.15435 -4.73788,-9.71843 -0.20815,-9.71843 5.09249,0 10.327,11.407 6.74461,14.69746 -1.63471,1.50142 -2.95097,0.49885 -6.53646,-4.97903 z m -173.5795,-3.84429 -4.4289,-2.14759 5.905197,-3.04018 c 3.247859,-1.67212 6.165918,-3.22803 6.484642,-3.45762 0.318587,-0.22958 -0.236804,-1.50581 -1.234331,-2.83606 -2.175037,-2.90032 -0.870124,-5.82943 2.596953,-5.82943 1.644901,0 3.158845,2.3151 4.405871,6.73673 1.670877,5.92489 1.597651,7.10625 -0.6075,9.80292 -2.909638,3.55808 -6.892097,3.79213 -13.121932,0.77123 z m 210.74163,-1.0236 c -2.44828,-1.08906 -3.32166,-2.81611 -3.32166,-6.56787 0,-2.79963 0.49824,-4.82819 1.10721,-4.50788 9.72704,5.11622 15.13207,8.91505 15.13207,10.63532 0,2.45654 -7.78851,2.72209 -12.91762,0.44043 z m -139.11163,-2.4393 c 1.02708,-1.36962 2.1715,-2.15375 2.54308,-1.74252 1.02382,1.13305 -1.05629,4.23275 -2.84054,4.23275 -0.97893,0 -0.86688,-0.93746 0.29746,-2.49023 z m -17.74511,-1.09806 c 0,-1.93609 6.5003,-13.30043 9.86832,-17.2526 0.96168,-1.12857 2.16898,-3.51803 2.68289,-5.30991 1.06543,-3.71484 5.16439,-4.45505 5.16439,-0.9326 0,1.27896 -1.57006,4.40364 -3.48909,6.94374 -1.91889,2.5401 -4.92198,7.74304 -6.67332,11.5621 -2.95466,6.44278 -7.55319,9.48039 -7.55319,4.98927 z m -60.480405,-1.28046 c -1.091871,-0.74682 -1.410155,-2.18267 -0.747004,-3.37014 0.691938,-1.23902 0.558923,-1.66097 -0.331576,-1.0519 -0.817868,0.55935 -2.747397,-0.0623 -4.287913,-1.38138 -2.747251,-2.35235 -2.74607,-2.44546 0.06489,-4.84913 5.345532,-4.57148 12.031535,-1.83305 8.152864,3.3392 -1.466704,1.95592 -1.226661,2.37918 1.349186,2.37918 1.723434,0 3.133443,0.55835 3.133443,1.2408 0,2.28586 -5.408863,5.00987 -7.333658,3.69337 z m 229.516605,-1.23001 c -5.25769,-2.94939 -12.54853,-10.18812 -12.54853,-12.45875 0,-0.88436 1.06825,-2.9144 2.37404,-4.51118 2.25549,-2.75824 2.55694,-2.66266 6.03644,1.91362 2.01425,2.64927 4.85834,4.81686 6.32017,4.81686 1.46183,0 4.14397,1.33179 5.96027,2.95955 2.94875,2.64256 3.08635,3.34256 1.28482,6.53528 -2.31027,4.094 -3.31518,4.17337 -9.42721,0.74462 z m -177.75389,-0.27776 c -1.67737,-1.19814 -1.07725,-2.99621 3.1364,-9.39774 2.86581,-4.35389 6.63611,-11.04081 8.37845,-14.85986 1.74248,-3.81906 3.83971,-6.94374 4.66067,-6.94374 3.70374,0 2.50632,5.235 -3.58342,15.66589 -9.65647,16.54006 -10.21717,17.2318 -12.5921,15.53545 z m -12.31955,-6.18647 c -1.42095,-0.41094 -2.58354,-1.68709 -2.58354,-2.83588 0,-2.11893 10.66095,-21.30169 15.91672,-28.63981 2.79568,-3.9032 2.97593,-3.93485 6.7644,-1.1877 2.14078,1.55231 3.89226,3.48261 3.89226,4.28955 0,0.80695 -2.9895,4.77566 -6.64334,8.81936 -3.65383,4.0437 -6.64334,8.21576 -6.64334,9.27123 0,2.40311 -5.75196,11.4762 -7.11295,11.21997 -0.55377,-0.1042 -2.16928,-0.52576 -3.59021,-0.93672 z m -30.976144,-6.33317 c -1.602666,-1.7736 2.346723,-7.24497 5.229643,-7.24497 3.892839,0 2.737649,7.19677 -1.256775,7.82956 -1.657303,0.26256 -3.445093,-5e-4 -3.972868,-0.58459 z m 21.840514,-2.23179 c -3.516691,-4.30054 -2.064176,-9.12704 2.01898,-6.70868 4.25986,2.52304 5.15065,4.97983 2.76362,7.62152 -1.84064,2.0372 -2.46806,1.91743 -4.7826,-0.91284 z m 211.75762,-0.11176 c -1.93617,-1.32514 -1.891,-1.8737 0.35844,-4.3639 2.01809,-2.23393 2.95969,-2.42034 4.3657,-0.86432 2.5475,2.81943 -1.57594,7.38296 -4.72414,5.22822 z M 55.54478,366.52295 c -6.778574,-7.38544 -8.380653,-9.81417 -7.783047,-11.79856 0.860977,-2.85845 29.710211,-15.99547 31.330002,-14.26666 2.096649,2.23806 0.0443,3.73424 -14.574311,10.6234 -7.244489,3.41407 -12.344215,6.51266 -11.332803,6.88576 2.261099,0.83414 13.918681,-3.85285 20.552878,-8.26338 3.595087,-2.39013 5.343913,-2.77701 6.54487,-1.44788 2.010727,2.22528 2.763938,1.61431 -11.373253,9.22471 -13.072767,7.03737 -13.000724,10.02111 0.08119,3.39259 4.574318,-2.31758 9.233074,-4.2138 10.352853,-4.2138 2.908603,0 2.518994,3.16818 -0.547408,4.45094 -1.420949,0.5944 -5.537009,3.14459 -9.14686,5.66708 -3.609851,2.5225 -7.263692,4.58297 -8.119647,4.57879 -0.855955,-0.005 -3.549314,-2.17901 -5.985209,-4.83299 z m 250.51548,1.45039 c 0.29099,-0.966 1.16023,-1.75637 1.93158,-1.75637 0.77138,0 1.64048,0.79037 1.93146,1.75637 0.29097,0.96598 -0.57828,1.75635 -1.93146,1.75635 -1.35332,0 -2.22255,-0.79037 -1.93158,-1.75635 z m -200.87819,-2.08629 c -1.22606,-1.63505 -1.21027,-3.6511 0.0605,-7.76066 2.61261,-8.44507 6.24534,-10.42515 7.98663,-4.35323 l 1.04655,3.64926 1.21988,-3.64926 c 1.16524,-3.486 4.26754,-5.14605 4.26754,-2.28356 0,1.89495 -10.47761,16.60632 -11.82723,16.60632 -0.6038,0 -1.84347,-0.994 -2.75448,-2.20887 z m -11.305489,-1.15164 c -1.760047,-3.15188 0.818172,-9.79425 4.5278,-11.66483 5.208239,-2.62624 5.767609,-0.95371 2.240439,6.69791 -3.112329,6.75158 -4.998599,8.1358 -6.768239,4.96692 z m 201.589329,0.50131 c 0.10334,-5.5762 7.62109,-6.99513 8.55735,-1.61505 0.38296,2.20052 -0.52778,2.84042 -4.04284,2.84042 -2.49538,0 -4.52692,-0.55141 -4.51451,-1.22537 z m 23.91838,-0.67942 c 0.35713,-1.19887 2.16589,-2.42543 4.01967,-2.72569 2.29003,-0.37094 3.16239,0.15276 2.72127,1.63382 -0.35697,1.19886 -2.16589,2.42542 -4.01953,2.7257 -2.29017,0.37094 -3.16252,-0.15276 -2.72141,-1.63383 z m -83.34398,-1.4825 c -1.41091,-0.90976 -3.21377,-2.99485 -4.00623,-4.63355 -2.66282,-5.50655 -6.1268,-27.98115 -8.16291,-52.96161 -1.89615,-23.26415 -4.22075,-52.16046 -6.11616,-76.02762 -0.49544,-6.23908 -1.36144,-9.79532 -2.1681,-8.90268 -0.73874,0.81753 -5.91155,15.78567 -11.49518,33.26254 -18.07478,56.57414 -19.95677,60.368 -29.94657,60.368 -4.89571,0 -7.47244,-1.72219 -19.70462,-13.16947 -15.8082,-14.79387 -14.12197,-14.48996 -30.98603,-5.58456 -5.68373,3.00139 -11.99491,5.67879 -14.02483,5.94975 -4.76061,0.63547 -33.456331,-1.49965 -59.790095,-4.44871 -11.3675,-1.27302 -25.152438,-2.79638 -30.633197,-3.38525 -22.4339809,-2.41033 -8.734815,-4.00375 60.159169,-6.99743 l 28.049673,-1.21884 15.26376,-7.80437 c 11.83001,-6.04859 16.2818,-7.57906 19.78859,-6.80288 4.53947,1.00478 13.29422,7.94835 23.63894,18.74862 6.97905,7.28648 8.09277,6.22754 13.52925,-12.86472 5.92497,-20.8077 16.84678,-53.20315 22.45819,-66.61398 2.73425,-6.53456 4.97144,-12.53476 4.97144,-13.33377 0,-2.64902 9.02991,-9.91273 12.29269,-9.88822 6.62488,0.0497 10.32435,3.73224 12.28575,12.22955 1.83431,7.94633 2.55739,15.47786 7.05967,73.52188 1.18488,15.27621 2.60389,33.50592 3.15336,40.51049 0.54935,7.00456 1.24511,12.4632 1.54584,12.13029 0.30087,-0.33289 4.12758,-14.57144 8.50392,-31.6412 9.0159,-35.16626 11.26077,-40.95077 16.45202,-42.39269 9.85237,-2.73668 14.36881,3.55752 18.47736,25.75084 1.50642,8.13746 3.11927,15.21619 3.584,15.73051 0.46476,0.51433 5.09487,-1.40565 10.28922,-4.26663 10.78038,-5.93761 12.41847,-6.07535 33.4299,-2.81073 21.11314,3.28044 26.8862,4.7382 27.55481,6.95788 0.73299,2.43355 -4.76151,3.32897 -27.19342,4.4316 -17.45014,0.85777 -18.31171,1.07703 -29.22702,7.43911 -17.82129,10.38728 -26.54916,8.4043 -30.48896,-6.92726 -0.98101,-3.81709 -2.22891,-7.52027 -2.77323,-8.22926 -0.54431,-0.70898 -2.84438,6.60045 -5.11124,16.24319 -11.81393,50.2542 -19.54944,64.79477 -30.65976,57.63118 z m 74.16599,-3.79009 c 0,-2.37423 3.56497,-4.67083 4.92095,-3.17015 0.42945,0.47525 0.42324,1.89504 -0.0148,3.15507 -1.02926,2.96839 -4.90736,2.9803 -4.90736,0.0147 z m 14.02484,-2.62553 c -1.37178,-2.45638 0.26174,-4.41975 4.40704,-5.29673 3.99206,-0.84455 4.95858,1.63036 1.94103,4.96997 -2.15612,2.38617 -5.113,2.53836 -6.34807,0.32676 z m -22.61632,-5.30991 c 0.25955,-2.02186 1.46833,-3.67609 2.68627,-3.67609 1.21795,0 2.42675,1.65423 2.68614,3.67609 0.36317,2.82927 -0.2557,3.67609 -2.68614,3.67609 -2.43057,0 -3.04929,-0.84682 -2.68627,-3.67609 z m 13.46267,-0.67227 c -0.55966,-1.61441 0.1562,-3.53203 1.8219,-4.88004 3.14245,-2.54295 5.64729,-0.73663 4.3133,3.11049 -1.31509,3.79278 -5.05912,4.87266 -6.1352,1.76955 z M 43.95554,350.52 c -0.380294,-0.68081 -1.156385,-3.98152 -1.724908,-7.33494 -0.862747,-5.08951 -0.57989,-6.26617 1.711474,-7.1201 6.167237,-2.2984 21.198607,-10.35096 21.198607,-11.35646 0,-1.66642 -6.864042,0.62419 -15.188743,5.06865 -8.446791,4.50961 -10.920625,3.52502 -9.126479,-3.63238 0.635842,-2.53693 1.349928,-5.7145 1.586727,-7.06123 0.810783,-4.61184 6.806179,-8.50951 11.493427,-7.47205 2.406957,0.53278 4.657427,1.27973 5.00096,1.65986 1.430384,1.58311 -1.573733,4.17625 -4.838124,4.17625 -1.934097,0 -3.978625,0.82736 -4.543309,1.83861 -1.027061,1.83901 4.003131,1.43291 12.699268,-1.02523 2.791241,-0.78901 4.737593,-0.0174 7.75056,3.07306 5.081571,5.21186 5.07317,7.20066 -0.03688,8.59955 -5.891321,1.6129 -23.711274,11.89983 -20.728117,11.96563 1.388015,0.0306 7.679558,-2.46079 13.981291,-5.53646 6.301723,-3.07566 11.975581,-5.23793 12.608472,-4.80502 3.441843,2.35415 -0.305443,5.58199 -12.869037,11.08512 -7.710862,3.37753 -14.393328,6.81011 -14.850095,7.62794 -1.009346,1.80738 -3.18231,1.93862 -4.125666,0.2492 z m 284.33541,-3.18287 c -1.82692,-0.38944 -3.32167,-1.41034 -3.32167,-2.26868 0,-2.44583 7.61904,-5.13802 9.29419,-3.2841 1.55764,1.72383 0.37498,6.84445 -1.49741,6.48333 -0.63437,-0.12239 -2.64819,-0.54112 -4.47511,-0.93055 z m -23.33924,-3.9052 c -0.55007,-0.98484 0.11514,-3.00669 1.47939,-4.493 2.30775,-2.5154 2.62635,-2.48295 4.60354,0.46905 1.16836,1.74429 2.12426,3.76614 2.12426,4.49301 0,1.99077 -7.05894,1.58734 -8.20719,-0.46906 z m 9.31442,-6.50938 c -2.94758,-1.89995 -3.39727,-5.65497 -0.88328,-7.37449 1.83032,-1.25195 5.68123,3.49325 5.68123,7.00074 0,2.53646 -1.28732,2.63673 -4.79795,0.37375 z m 6.87673,-4.17887 c -1.20347,-7.10017 0.68014,-9.42638 6.48952,-8.01426 3.00161,0.7296 4.99963,2.59597 6.19322,5.78504 2.33535,6.23957 1.20244,7.76923 -5.83374,7.8767 -5.572,0.0851 -5.92675,-0.20744 -6.849,-5.64748 z m 604.67997,3.09513 c -9.0965,-0.70015 -20.66817,-4.14607 -20.66817,-6.15471 0,-1.07029 0.75114,-4.33069 1.66923,-7.24533 1.51247,-4.80186 2.10152,-5.20954 6.27428,-4.34253 13.13906,2.73008 20.89169,2.86384 23.7969,0.41059 2.61718,-2.21018 2.70104,-2.76106 0.73815,-4.85064 -1.21795,-1.29651 -6.20046,-3.97098 -11.07225,-5.94326 -13.07113,-5.29172 -18.02456,-9.19968 -19.98243,-15.76506 -3.91646,-13.13348 2.63018,-23.91523 16.25834,-26.77549 8.11772,-1.70379 20.83602,-0.75452 25.4995,1.90322 2.85015,1.62431 3.40686,8.0387 1.11004,12.78838 -1.23625,2.55623 -2.24531,2.80211 -6.26453,1.52641 -7.32494,-2.32489 -16.74329,-1.85983 -18.83534,0.93009 -2.79598,3.72839 0.45128,6.93507 10.1581,10.03102 18.082,5.76725 25.7905,17.3261 20.21954,30.31895 -3.96297,9.24246 -14.93824,14.24311 -28.90136,13.16836 z m 14.763,-5.32065 c 1.75944,-1.2584 1.45606,-1.60083 -1.47631,-1.66671 l -3.69074,-0.0829 3.69074,-2.33494 c 4.3229,-2.7349 7.95637,-3.16809 6.62843,-0.79025 -0.51005,0.91325 -1.54569,1.23747 -2.30155,0.72048 -0.75585,-0.517 -1.37428,-0.57239 -1.37428,-0.12303 0,2.94185 3.35369,2.02208 6.55403,-1.79742 5.26994,-6.28995 5.10503,-14.12036 -0.41766,-19.81923 -2.30862,-2.38241 -9.32843,-6.49316 -15.5993,-9.13506 -12.10064,-5.09788 -15.29594,-8.57927 -12.73514,-13.87483 2.10211,-4.34695 6.05223,-5.41945 17.53178,-4.76003 9.57588,0.55005 9.83333,0.46064 9.83333,-3.41585 0,-5.08792 -6.80662,-7.329 -18.70986,-6.16025 -13.69356,1.34453 -20.41206,7.92245 -20.41206,19.98478 0,7.33461 5.36076,12.07742 19.59182,17.33321 9.88116,3.64933 12.40991,5.27212 13.54888,8.69482 1.07342,3.22546 0.8375,4.83099 -1.01008,6.87583 -3.07957,3.40816 -13.64558,5.18662 -20.32023,3.42034 -9.10994,-2.41072 -9.59593,-2.30791 -9.59593,2.02963 0,3.38641 0.88313,4.25724 5.16703,5.09483 8.34228,1.63113 22.70075,1.52051 25.0971,-0.19336 z m -20.945,-2.74993 c 1.06559,-0.47195 2.33891,-0.4139 2.82947,0.12909 0.49058,0.54289 -0.38133,0.92905 -1.93763,0.85811 -1.71975,-0.0784 -2.06962,-0.46555 -0.89184,-0.98711 z m 26.85019,-8.68682 c 0,-0.89859 0.66433,-1.63381 1.4763,-1.63381 0.81196,0 1.47629,-1.14623 1.47629,-2.54715 0,-1.56347 -0.71276,-2.10187 -1.84536,-1.39413 -1.46509,0.91536 -1.47011,0.70513 -0.0251,-1.02003 2.50587,-2.99069 3.89374,-0.94288 2.75729,4.06831 -0.90424,3.98696 -3.84002,5.91879 -3.84002,2.52681 z m -5.16706,-11.43673 c -2.47368,-3.02491 -2.48416,-3.26764 -0.14172,-3.26764 1.46951,0 2.10816,-0.75604 1.52325,-1.80329 -0.55376,-0.99182 0.73563,-0.53964 2.8655,1.00481 4.44276,3.22164 4.85747,4.93207 1.53726,6.34204 -3.08428,1.30986 -2.74206,1.44453 -5.78442,-2.27592 z m -517.97414,25.1085 c -10.10157,-3.43362 -20.63451,-15.35298 -23.71644,-26.83824 -3.04604,-11.35141 -2.9892,-28.98836 0.12107,-37.85741 7.69462,-21.93612 29.19735,-34.28939 50.77228,-29.16868 10.75779,2.55327 11.73169,3.69323 9.91688,11.60623 l -1.48559,6.47715 -6.09742,-1.21339 c -10.92592,-2.17424 -21.36588,-1.22458 -25.71285,2.33897 -9.23424,7.56971 -13.3531,20.57915 -11.30386,35.70262 1.37428,10.14201 6.01149,17.21945 14.24569,21.74221 6.5006,3.57056 7.6183,3.69751 17.54581,1.99287 5.83152,-1.00134 10.87694,-1.5173 11.2119,-1.14656 0.33497,0.37072 0.74258,3.86765 0.90585,7.77095 0.28213,6.74889 0.0428,7.19447 -4.8703,9.08606 -7.04696,2.71285 -22.82844,2.46621 -31.53373,-0.49278 z m 33.12505,-3.34086 c 0.95457,-1.05746 1.34964,-3.63072 0.87795,-5.71837 -0.80694,-3.57133 -1.43865,-3.76285 -10.68662,-3.23975 -5.40591,0.30578 -11.98179,0.10898 -14.6133,-0.43736 -4.51364,-0.93713 -12.91584,-8.49534 -19.03259,-17.12079 -1.96186,-2.76668 -3.058,-3.29817 -3.85579,-1.8697 -0.61296,1.09774 -1.53846,1.93308 -2.05664,1.85633 -3.67789,-0.54473 -4.19874,0.2212 -3.34868,4.92466 1.58437,8.76718 11.45946,19.23069 21.59839,22.8854 5.44148,1.96149 29.06848,0.98929 31.11728,-1.28042 z m 70.79132,4.18944 c -12.59016,-5.56086 -19.15232,-17.27414 -19.20355,-34.27774 -0.0399,-13.46423 4.15815,-23.08422 13.12607,-30.07418 5.81618,-4.53347 7.22058,-4.89425 18.70573,-4.80541 11.30521,0.0874 12.96324,0.52647 18.5116,4.90146 8.98684,7.08637 13.10512,16.80904 13.10512,30.93994 0,10.19148 -0.53885,12.39593 -4.79797,19.63111 -6.33539,10.76194 -14.67913,15.54084 -26.8862,15.39902 -4.90281,-0.0571 -10.5551,-0.82835 -12.5608,-1.7142 z m 25.94934,-4.1113 c 7.91296,-4.12432 12.64288,-10.96173 13.51655,-19.53888 0.68442,-6.71972 0.46666,-7.60756 -1.64505,-6.71073 -1.67558,0.71158 -2.44075,0.15881 -2.45625,-1.77436 -0.0192,-2.4102 -0.22543,-2.46079 -1.45371,-0.35717 -1.18768,2.03375 -1.44101,1.89474 -1.48885,-0.81691 -0.0309,-1.7972 -1.68755,1.14368 -3.67967,6.53528 -1.99212,5.39161 -5.0395,11.08955 -6.77194,12.66209 -3.95765,3.59264 -14.29248,3.75822 -18.75312,0.3005 -3.64675,-2.82683 -9.16649,-13.70872 -9.16649,-18.07127 0,-1.53347 -0.4113,-2.33298 -0.91397,-1.77671 -0.50268,0.55628 -1.9279,-0.11077 -3.1671,-1.48223 -1.71355,-1.89632 -2.51961,-2.01658 -3.36553,-0.50196 -0.77991,1.39656 -1.3263,1.06648 -1.82869,-1.10465 -0.39402,-1.70298 -0.79336,0.53144 -0.88754,4.96538 -0.50844,23.93132 21.48131,38.39806 42.06136,27.67162 z m -3.70166,-13.48016 c 2.84998,-2.55408 3.52259,-4.96066 3.99545,-14.29593 0.49116,-9.69827 0.12107,-11.85254 -2.71919,-15.83989 -4.4881,-6.30024 -9.48169,-8.18408 -15.6867,-5.91776 -6.40094,2.33792 -9.35752,8.6979 -9.35752,20.12919 0,7.23612 0.72899,9.90067 3.82198,13.9686 3.1767,4.17819 4.89364,5.02682 10.17052,5.02682 4.01346,0 7.60898,-1.12959 9.77546,-3.07103 z m 133.37708,17.84255 c -5.36029,-2.40251 -12.32118,-12.89337 -14.78912,-22.28889 -4.70038,-17.89389 1.5795,-36.70773 14.7906,-44.31104 3.99472,-2.29903 18.9601,-3.46379 24.4382,-1.90204 1.79902,0.51289 2.35293,-1.9738 2.9526,-13.25615 l 0.73815,-13.88746 7.55983,-0.48652 c 6.28121,-0.40423 7.66244,0.01 8.16584,2.45073 0.33306,1.61548 0.55333,23.15576 0.4894,47.86729 l -0.11663,44.93003 -6.31309,0.50829 c -3.47226,0.27958 -7.21275,-0.31804 -8.31245,-1.32801 -1.50154,-1.37917 -3.10997,-1.20066 -6.46086,0.71707 -4.73774,2.7114 -18.03034,3.27812 -23.14275,0.9867 z m 23.36613,-4.9686 c 4.4655,-3.88733 6.97876,-4.18151 6.97876,-0.81691 0,1.70077 1.54524,2.45073 5.04967,2.45073 4.32806,0 5.1657,-0.64218 5.86077,-4.49301 0.44598,-2.47114 0.26129,-11.47757 -0.41043,-20.01429 -0.67186,-8.53669 -1.31626,-14.31332 -1.43185,-12.8369 -0.24493,3.12388 -4.13822,5.2531 -5.41728,2.96263 -2.18241,-3.90782 -3.65487,-0.78921 -3.69783,7.83201 -0.0517,10.34904 -1.84508,14.12621 -7.92006,16.68241 -9.7815,4.1157 -18.49978,0.28799 -22.11421,-9.70898 -1.31864,-3.64712 -2.39737,-8.36237 -2.39737,-10.47837 0,-3.10527 -0.78302,-3.84926 -4.0598,-3.85768 -4.99522,-0.0131 -6.22261,1.92417 -6.2517,9.86582 -0.0561,15.41322 9.43562,25.68017 23.7417,25.68017 6.08072,0 9.32504,-0.87836 12.06963,-3.26763 z m 0.97419,-12.66211 c 2.91555,-2.62106 3.14437,-4.15184 2.74711,-18.38045 l -0.43329,-15.52129 -5.55429,-1.51841 c -12.18241,-3.33043 -21.63236,7.90677 -19.55314,23.25129 1.32381,9.77034 6.15352,15.02805 13.80443,15.02805 3.33644,0 7.16242,-1.21697 8.98918,-2.85919 z m 113.94576,16.39948 c -8.64373,-4.71245 -10.4355,-11.85053 -10.47316,-41.72367 l -0.0325,-25.73266 h 8.11965 8.11964 v 23.32684 c 0,28.93834 0.97539,31.37218 12.09901,30.18931 3.99662,-0.42501 8.05807,-1.64641 9.0252,-2.71425 1.15713,-1.27753 1.9211,-10.29626 2.23393,-26.37171 l 0.47537,-24.43019 h 8.01335 8.0132 v 34.31021 34.31021 h -7.08623 c -3.89743,0 -7.80712,-0.7978 -8.68817,-1.77285 -1.15165,-1.2746 -2.87376,-1.04502 -6.12707,0.8169 -5.85797,3.35247 -17.34637,3.25155 -23.69224,-0.20814 z m 25.10299,-4.34451 c 4.28761,-3.32357 7.20419,-3.40849 7.20419,-0.20977 0,1.71162 1.55822,2.45073 5.16704,2.45073 h 5.16704 V 299.4755 268.43294 h -5.75579 -5.75579 l -0.21437,22.19389 c -0.23325,24.13309 -1.10235,27.3884 -8.025,30.05915 -6.83542,2.63709 -11.95847,1.96397 -15.32133,-2.0131 -2.71152,-3.20669 -3.20387,-6.26044 -3.8558,-23.91494 -0.411,-11.13136 -1.45327,-21.02005 -2.31601,-21.97486 -1.10737,-1.2255 -1.56857,-0.99931 -1.56857,0.76915 0,1.37786 -0.99651,2.50518 -2.21444,2.50518 -1.21795,0 -2.21446,-0.65605 -2.21446,-1.45794 0,-0.80186 -0.66434,-1.00353 -1.47629,-0.44817 -1.55175,1.06135 -2.07731,41.5615 -0.61489,47.38077 2.65705,10.57254 21.65701,14.60326 31.79447,6.74504 z m 8.68151,-56.98499 c -0.001,-1.72963 5.55975,-1.53001 6.54532,0.23494 0.44865,0.80317 -0.84046,1.35458 -2.86432,1.22537 -2.02401,-0.12924 -3.68041,-0.78637 -3.681,-1.46031 z m -32.83155,-2.34794 c -1.41149,-0.40892 -4.06884,-0.42377 -5.9052,-0.033 -1.83637,0.3908 -0.68145,0.72539 2.56641,0.74351 3.24784,0.0181 4.75026,-0.30161 3.33879,-0.71054 z m 64.28795,64.86449 c -6.94895,-3.18064 -7.46447,-6.37584 -8.24765,-51.11955 -0.82495,-47.12948 -1.1651,-45.57359 9.63787,-44.07527 l 5.53611,0.76783 0.17243,28.82153 c 0.0945,15.85186 0.59318,33.57053 1.10722,39.37485 0.84431,9.5323 1.29177,10.64588 4.62554,11.51039 3.25494,0.84412 3.69075,1.81633 3.69075,8.23563 v 7.27854 l -6.64334,0.34353 c -3.65384,0.18893 -8.09942,-0.32294 -9.87893,-1.13748 z m 13.23825,-6.00482 c 0.58329,-3.37654 -0.034,-4.41681 -3.38958,-5.71137 -2.25668,-0.87058 -4.49253,-3.19086 -4.96878,-5.15618 -0.47626,-1.96535 -0.9655,-16.80727 -1.08715,-32.98209 -0.12106,-16.1748 -0.52645,-27.57069 -0.89966,-25.32419 -1.36055,8.18981 -5.4843,10.5671 -7.79367,4.493 -0.93066,-2.44779 -1.28467,6.9693 -1.0597,28.18338 0.37779,35.60125 0.9726,38.04031 9.87409,40.48364 6.70372,1.84008 8.44678,1.09491 9.32445,-3.98619 z m 81.74694,5.93835 c -7.86528,-2.60908 -14.25545,-8.78972 -18.17309,-17.57734 -3.43786,-7.71155 -3.74153,-9.80127 -2.83951,-19.54409 1.62009,-17.50055 9.23763,-28.28738 22.1917,-31.42434 14.47779,-3.50596 26.62788,1.63444 32.84198,13.89474 3.5647,7.03297 6.0501,23.01245 3.9421,25.34532 -0.7191,0.79591 -9.888,1.85084 -20.37516,2.3443 -10.48717,0.49345 -19.3429,1.2019 -19.67934,1.57429 -0.33661,0.3724 -0.19459,2.13199 0.31532,3.91019 2.02032,7.04429 16.00767,10.34832 29.32548,6.92715 5.2251,-1.34222 5.7271,-1.14564 7.072,2.76947 2.1725,6.32364 1.1273,8.8696 -4.5765,11.14642 -5.8789,2.34679 -23.74503,2.72373 -30.04498,0.63389 z m -17.64975,-37.09479 c -0.37439,-1.58966 -0.70522,-0.68461 -0.73533,2.01118 -0.0295,2.69581 0.27621,3.99642 0.68056,2.89027 0.40436,-1.10613 0.42902,-3.3118 0.0547,-4.90145 z m 32.9318,1.87047 c 0,-0.31719 -2.35456,-0.47874 -5.2323,-0.35901 -2.87774,0.11976 -4.49562,0.72151 -3.59538,1.33732 1.54893,1.05936 8.82768,0.25271 8.82768,-0.97831 z m 9.22693,-0.12435 c -1.015,-0.45323 -2.6759,-0.45323 -3.6908,0 -1.015,0.45325 -0.1845,0.82407 1.8454,0.82407 2.0299,0 2.8603,-0.37082 1.8454,-0.82407 z m -3.3217,-8.41279 c 0,-5.03161 -5.53055,-10.111 -11.00908,-10.111 -7.02261,0 -9.45335,1.35553 -11.9282,6.65214 -1.18799,2.54229 -2.15983,5.02647 -2.15983,5.52037 0,0.49393 5.64684,0.89805 12.54852,0.89805 11.12899,0 12.54859,-0.33481 12.54859,-2.95956 z m 4.8645,-2.35035 c -0.429,-2.47115 -1.346,-4.49301 -2.0377,-4.49301 -0.6918,0 -0.9467,1.10284 -0.5662,2.45074 0.3806,1.34789 1.0398,3.65879 1.4648,5.13531 1.1957,4.15306 2.0121,1.9363 1.1391,-3.09304 z m -29.53423,-4.71576 c 2.01619,-1.47816 2.58516,-9.58024 0.67275,-9.58024 -0.87574,0 -1.24451,-0.3849 -0.81935,-0.85537 0.42504,-0.47047 1.92008,-0.36813 3.32241,0.22736 2.02077,0.85818 2.14107,1.36926 0.58033,2.46418 -1.57032,1.10168 -1.51247,1.38649 0.28597,1.40645 1.24024,0.0131 3.73149,-1.1195 5.53612,-2.51837 2.02518,-1.5699 3.28108,-1.84565 3.28108,-0.72048 0,1.0026 0.73518,1.31998 1.63382,0.70533 2.7025,-1.84844 -1.70483,-3.84599 -6.73133,-3.05087 l -4.49844,0.71158 4.42889,-1.64006 c 2.43591,-0.90202 6.42191,-1.22584 8.85779,-0.71959 3.35076,0.69642 3.88991,0.50473 2.21446,-0.78747 -3.50607,-2.70408 -12.90684,-2.039 -18.88171,1.33582 -6.40567,3.61814 -9.87467,7.52363 -11.88775,13.38354 -1.14635,3.33655 -1.0002,4.2177 0.69888,4.2177 1.31435,0 1.83533,-1.00388 1.34255,-2.58687 -0.67867,-2.18043 -0.50224,-2.15746 1.12316,0.14623 1.80271,2.55488 2.04557,2.55488 3.72381,0 1.54909,-2.35809 1.68048,-2.17266 0.95739,1.35147 -0.78008,3.80162 -0.71424,3.85821 0.95162,0.81692 0.98426,-1.7972 2.42777,-3.73545 3.20755,-4.30722 z m 36.48013,1.25992 c 0,-1.22673 -1.3767,-4.16712 -3.0591,-6.53423 -2.7116,-3.81496 -3.3091,-4.02699 -5.2612,-1.86668 -2.1797,2.41242 -1.6128,5.72985 0.9795,5.72985 0.7386,0 0.9335,-1.28664 0.4333,-2.85918 -0.7097,-2.23055 -0.2124,-2.06595 2.2608,0.74858 1.7437,1.98428 3.1703,4.37375 3.1703,5.3099 0,0.93619 0.3322,1.70215 0.7382,1.70215 0.406,0 0.7382,-1.00369 0.7382,-2.23039 z m -10.9855,-10.11338 c 2.7335,-2.42359 2.7071,-2.45548 -0.5713,-0.6911 -1.8904,1.01737 -4.41606,1.43396 -5.61274,0.92576 -1.22282,-0.51933 -1.78072,-0.21663 -1.27391,0.69108 1.30726,2.34067 4.17555,1.98462 7.45795,-0.92574 z m -534.55649,57.72012 c -0.415,-1.19703 -0.5737,-16.49155 -0.35255,-33.98778 l 0.40214,-31.8113 7.12713,-0.50318 c 3.95648,-0.2793 8.05278,0.34711 9.20797,1.40817 1.15003,1.05626 3.2452,1.37985 4.68326,0.7233 4.99624,-2.28081 12.5723,-3.81763 14.59188,-2.95998 1.3458,0.57157 2.03538,3.57252 2.03538,8.85867 v 7.9943 h -5.82297 c -4.0229,0 -7.10321,1.21707 -9.96502,3.93732 -4.07014,3.86895 -4.15489,4.31585 -4.8802,25.73266 l -0.73814,21.79533 -7.76711,0.49447 c -5.43927,0.34628 -7.99328,-0.15783 -8.52177,-1.68198 z m 14.07443,-15.87117 c 0,-14.95905 -0.69327,-16.85666 -6.32549,-17.31589 -4.11622,-0.3356 -5.4849,4.34225 -5.4849,18.74588 v 13.17796 h 5.9052 5.90519 z m 106.78319,15.29754 c -3.78316,-10.91074 -16.32166,-63.85611 -15.37329,-64.91583 0.65164,-0.72831 4.43318,-1.09592 8.40339,-0.81691 l 7.21837,0.50729 4.20745,19.19737 c 2.31409,10.55857 4.69034,19.19738 5.28056,19.19738 1.09408,0 7.9543,-21.34673 9.71066,-30.21653 0.5328,-2.69076 1.66098,-5.81545 2.50705,-6.94374 2.0364,-2.71547 15.83862,-2.72307 16.62208,-0.01 0.32434,1.12325 2.74148,10.3356 5.37153,20.47191 2.63001,10.13631 5.2928,17.8561 5.91714,17.15511 0.62432,-0.701 3.17566,-9.33282 5.66957,-19.18183 2.49406,-9.84898 5.1018,-18.53495 5.79508,-19.30215 0.6931,-0.76719 4.17407,-1.16392 7.73519,-0.88165 8.0637,0.63919 8.08261,-0.35757 -0.61295,32.37273 -10.38221,39.07892 -8.80287,35.94402 -18.10873,35.94402 H 632.1293 L 626.07205,312.522 c -3.33156,-11.69457 -6.5586,-20.91992 -7.17141,-20.50079 -0.61283,0.41909 -2.3166,5.39226 -3.7864,11.05145 -1.46982,5.65918 -3.82879,14.70074 -5.2422,20.09235 l -2.56979,9.80292 -8.31747,0.49056 c -6.69058,0.39461 -8.50348,-0.0459 -9.26835,-2.25171 z m 17.60442,-9.26714 c 3.00205,-10.75574 4.81377,-22.03371 3.28491,-20.44815 -0.63643,0.65999 -2.1024,-0.0751 -3.2579,-1.63382 -1.15551,-1.55858 -1.68017,-1.91476 -1.16612,-0.79149 0.51419,1.12324 0.25791,2.04226 -0.56941,2.04226 -0.82732,0 -2.30583,2.96132 -3.28565,6.58069 -0.97982,3.61938 -2.49361,6.318 -3.36389,5.99696 -0.87029,-0.32106 -2.71197,-4.569 -4.09275,-9.43989 -1.38064,-4.87086 -2.5509,-7.59256 -2.6005,-6.04822 -0.0575,1.80673 -0.87987,2.47258 -2.30464,1.86747 -1.29412,-0.54954 -2.22391,-0.0189 -2.23705,1.27664 -0.0177,1.71075 -0.34943,1.65738 -1.45372,-0.23365 -1.95181,-3.34242 -1.80152,-0.91322 0.65755,10.62394 3.82775,17.95877 4.33706,18.78481 11.58482,18.78481 h 6.41024 z m 42.61602,-5.28387 c 2.57245,-13.0486 2.45922,-16.74755 -0.37455,-12.23238 -1.14146,1.81873 -1.69066,1.90657 -2.25725,0.36114 -1.29958,-3.54472 -3.18466,-2.22432 -4.21159,2.95014 -1.39083,7.00811 -5.0817,5.61387 -7.91473,-2.98982 -1.44337,-4.38375 -3.00529,-6.68362 -4.19564,-6.17811 -1.04302,0.44293 -1.94885,-0.0907 -2.01293,-1.18568 -0.0783,-1.33189 -0.38149,-1.25372 -0.91678,0.23615 -0.6757,1.88032 -0.99887,1.88032 -2.07539,0 -2.57407,-4.49641 -1.34623,2.00557 3.31916,17.57625 l 4.63928,15.48375 6.71435,-0.48846 6.71435,-0.48848 z m 92.33273,16.03984 c -0.54121,-0.59907 -0.9841,-21.49989 -0.9841,-46.44629 v -45.35707 l 8.31009,-1.14908 c 4.57061,-0.63199 14.16508,-0.77961 21.32114,-0.32807 10.64633,0.6718 14.25071,1.62505 19.83201,5.24494 11.36455,7.37067 16.09299,20.61118 12.55443,35.15448 -3.68704,15.15381 -13.34897,22.14537 -33.16563,23.99922 l -11.13646,1.04181 -0.0207,10.78854 c -0.0325,17.00135 -0.58226,18.14074 -8.76375,18.14074 -3.82983,0 -7.4063,-0.49014 -7.94752,-1.08922 z m 13.7789,-16.64013 v -14.4617 l 12.17945,-0.96093 c 6.69871,-0.52852 14.59116,-2.08126 17.53888,-3.45054 10.39845,-4.83036 17.46284,-18.70469 14.77775,-29.02295 -1.34919,-5.1844 -1.4236,-5.23256 -1.55026,-1.00396 -0.10481,3.51619 -0.67158,4.22192 -2.71669,3.38683 -1.42095,-0.58022 -3.04606,-1.82317 -3.61133,-2.76213 -1.18369,-1.9661 -2.01027,0.27013 -3.30337,8.93632 -1.41459,9.48203 -7.11279,12.95528 -21.25412,12.95528 h -11.68003 l -1.03576,-8.57755 c -0.85817,-7.10663 -1.33385,-8.12947 -2.77368,-5.9647 -2.17238,3.26608 -4.22206,3.32202 -6.30335,0.172 -2.12986,-3.22357 -3.55419,11.47116 -3.55419,36.66648 v 18.54926 h 6.64334 6.64336 z m 26.68689,-34.4272 c 2.49524,-2.76148 4.31537,-6.51912 4.31537,-8.90914 0,-11.01267 -7.50181,-17.35764 -20.52233,-17.35764 h -7.52735 v 15.52128 15.52128 h 9.70948 c 8.76315,0 10.13006,-0.46547 14.02483,-4.77578 z m -431.18992,-7.0694 c -0.7755,-2.02185 -2.80851,-9.92546 -4.51763,-17.56357 -3.64719,-16.29892 -12.81147,-38.04404 -23.75526,-56.36677 -18.89206,-31.63004 -49.81549,-56.90689 -85.70652,-70.05679 -21.49063,-7.87381 -50.13023,-11.62644 -69.43564,-9.09812 -72.413052,9.48351 -126.320827,56.42997 -151.864927,132.25405 -3.840296,11.39965 -5.896043,12.97708 -2.979171,2.28607 0.710689,-2.60524 2.121441,-8.78051 3.134919,-13.72281 2.681106,-13.07557 13.065096,-35.74407 22.808224,-49.79116 23.482145,-33.85546 55.516801,-58.82508 91.265955,-71.13813 63.0006,-21.699198 126.78984,-7.29939 176.75489,39.90071 23.12754,21.8476 42.2961,58.02202 50.29543,94.91605 3.96651,18.29405 3.81844,22.05656 -0.86778,22.05656 -2.45818,0 -4.20125,-1.24842 -5.13249,-3.67609 z M 36.346401,270.05521 c -1.120953,-2.00721 2.941968,-3.96548 5.126891,-2.47108 0.864077,0.59101 1.188862,1.75899 0.721762,2.59552 -1.126859,2.01767 -4.694777,1.94176 -5.848653,-0.1245 z m 8.864289,-4.88992 c -1.469656,-1.7972 -3.449816,-3.26764 -4.400404,-3.26764 -2.810578,0 -8.45742,-7.64114 -7.912666,-10.70742 0.276364,-1.55638 1.716049,-3.64384 3.19914,-4.63875 2.250469,-1.50974 3.367141,-0.93066 6.750819,3.50099 2.229948,2.92045 5.114193,5.30991 6.409644,5.30991 4.497545,0 7.025705,2.00302 7.025705,5.5664 0,7.43336 -6.442418,9.89835 -11.072238,4.23651 z m 271.1847,2.10225 c -1.87372,-0.3962 -3.15472,-1.5827 -2.84676,-2.63667 0.65518,-2.24282 12.63166,-6.83908 13.96757,-5.3605 0.95457,1.05642 -5.39397,9.32495 -6.86406,8.94007 -0.46753,-0.12238 -2.38304,-0.54667 -4.25675,-0.9429 z M 31.481111,264.83852 c -2.002451,-2.216 -2.382154,-6.2085 -0.590518,-6.2085 1.839763,0 4.724155,3.69088 4.724155,6.04513 0,2.65722 -1.815405,2.72898 -4.133637,0.16337 z m 273.844239,-2.35184 c -1.37075,-1.51709 0.28227,-3.85666 2.72497,-3.85666 1.15416,0 5.73349,-2.57327 10.17596,-5.71837 9.41554,-6.66572 9.69561,-6.73815 9.69561,-2.50823 0,3.47354 -2.95941,5.75425 -13.28669,10.23988 -7.40866,3.21788 -7.96773,3.32859 -9.30985,1.84338 z m -6.84648,-6.95275 c -1.7937,-3.70905 -0.22469,-5.44228 7.37618,-8.14802 2.88469,-1.02688 7.53503,-4.0973 10.3341,-6.82316 4.67042,-4.54823 4.78557,-4.8687 1.39864,-3.89382 -2.02991,0.58427 -7.751,3.538 -12.7136,6.56386 -4.96242,3.02584 -9.44668,5.03227 -9.96501,4.45871 -2.276,-2.51885 -0.55228,-5.74674 4.25601,-7.97014 2.85903,-1.32204 8.52283,-4.66756 12.58605,-7.43446 6.08397,-4.14294 7.78055,-4.66992 9.61381,-2.98607 1.22444,1.12457 1.9586,2.85335 1.6316,3.84173 -0.32714,0.9884 0.28154,2.91669 1.35244,4.28512 1.07091,1.36842 1.4825,3.29041 0.91457,4.27108 -1.15933,2.00202 -22.49274,16.93126 -24.19417,16.93126 -0.60144,0 -1.76713,-1.39325 -2.59062,-3.09609 z M 61.498104,253.81479 c -1.298111,-2.32432 0.357259,-4.98769 3.099777,-4.98769 1.293545,0 2.034499,1.14786 1.758282,2.72379 -0.575015,3.28147 -3.522749,4.65511 -4.858059,2.2639 z m -4.846101,-6.18143 c -1.014955,-0.39182 -1.845373,-1.67529 -1.845373,-2.85217 0,-2.46478 2.842909,-3.96913 5.536116,-2.92945 1.014966,0.3918 1.845374,1.67529 1.845374,2.85215 0,2.4648 -2.843047,3.96916 -5.536117,2.92947 z m 11.722254,-3.29927 c 0.273709,-1.57254 1.475847,-2.85918 2.671653,-2.85918 1.195659,0 2.397818,1.28664 2.671517,2.85918 0.349151,2.0061 -0.44806,2.85918 -2.671517,2.85918 -2.223593,0 -3.020647,-0.85308 -2.671653,-2.85918 z m 6.705354,-5.17213 c -0.947048,-4.00783 1.32719,-6.52468 4.948546,-5.47661 3.215384,0.93056 3.665063,3.75906 1.056595,6.64588 -2.608625,2.88681 -5.16439,2.38917 -6.005141,-1.16927 z m -12.188624,-0.20082 c -1.487958,-2.66462 1.817329,-5.97036 3.788486,-3.78889 1.06766,1.18155 0.881931,2.30655 -0.606612,3.67374 -1.585843,1.45659 -2.415968,1.48663 -3.181874,0.11518 z m -24.323643,-2.46636 c 0,-1.98421 4.243031,-5.6397 6.546205,-5.6397 0.459424,0 0.83529,1.41931 0.83529,3.15401 0,1.99215 1.223556,3.38953 3.321672,3.79339 1.826919,0.35167 0.166084,0.70915 -3.690747,0.7944 -5.049384,0.11157 -7.01242,-0.47689 -7.01242,-2.1021 z m 253.923366,0.45579 c 0,-1.14047 4.15209,-4.57843 9.22686,-7.63992 5.07479,-3.06148 9.65795,-6.27919 10.185,-7.15048 1.1639,-1.92418 5.68522,-0.24745 5.68522,2.10835 0,0.92681 -0.84104,1.68511 -1.86884,1.68511 -1.0278,0 -6.41615,2.94087 -11.97412,6.53527 -11.36484,7.34984 -11.25412,7.30596 -11.25412,4.46167 z M 68.579463,231.53462 c -1.057765,-3.05093 1.566345,-6.38941 3.814013,-4.85207 2.344079,1.60324 1.960384,5.30583 -0.665367,6.42091 -1.315665,0.55871 -2.639616,-0.10093 -3.148646,-1.56884 z m 14.572096,0.62752 c -2.315857,-2.5629 -2.272317,-6.21531 0.07387,-6.1835 3.382346,0.046 5.977242,2.88129 5.059419,5.52845 -1.080648,3.1165 -2.720073,3.3257 -5.133241,0.65505 z m -31.297526,-1.21442 c 0,-0.84764 1.377386,-2.60893 3.060958,-3.91396 1.81068,-1.40358 2.440025,-2.79753 1.540813,-3.41261 -2.305241,-1.57671 -0.224841,-5.83663 2.850441,-5.83663 4.143822,0 5.127034,3.40865 1.831936,6.35101 -1.623042,1.44924 -3.35858,3.92164 -3.856831,5.49419 -0.936712,2.95656 -5.427317,4.04711 -5.427317,1.318 z m -6.437548,-2.86009 c -1.764324,-1.95266 -0.953245,-5.40165 1.270503,-5.40165 1.217947,0 2.214448,1.05944 2.214448,2.35431 0,2.72954 -2.107122,4.5721 -3.484951,3.04734 z m 245.597935,-0.17342 c 0,-2.23165 3.42427,-5.22823 5.97458,-5.22823 1.33723,0 3.96341,-1.47043 5.8358,-3.26763 1.87239,-1.79721 4.79738,-3.24427 6.50015,-3.21568 3.03955,0.051 3.04369,0.0956 0.23,2.45072 -1.57608,1.31932 -3.44731,2.39877 -4.15829,2.39877 -0.71099,0 -3.47005,1.83805 -6.13137,4.08455 -4.84167,4.08696 -8.25087,5.2346 -8.25087,2.7775 z M 74.161046,223.71967 c -1.276701,-1.70238 -1.126414,-2.73812 0.631429,-4.35266 1.90885,-1.75323 2.70604,-1.67676 4.621839,0.44335 2.475757,2.73995 1.571957,6.14327 -1.631463,6.14327 -1.070607,0 -2.70044,-1.00529 -3.621805,-2.23396 z m 12.386004,0.0897 c -3.847825,-2.5285 -5.116846,-4.5427 -5.144463,-8.1657 -0.01912,-2.42221 0.979827,-2.86597 5.51354,-2.45073 5.227574,0.47884 5.53612,0.8181 5.53612,6.08929 0,6.22794 -1.530923,7.40161 -5.905197,4.52714 z m -39.03924,-4.33436 c -1.452087,-0.99321 -1.481318,-2.06601 -0.131391,-4.85578 1.388754,-2.87197 2.149639,-3.19696 3.843101,-1.64155 4.13644,3.79921 0.823922,9.59903 -3.710972,6.49733 z m 14.239198,-4.35699 c -1.832532,-2.0281 -1.106196,-3.8673 1.548342,-3.92047 2.000529,-0.0401 1.66748,-0.80807 -1.476297,-3.40392 -7.077528,-5.84377 -4.375458,-12.92079 4.040629,-10.58312 4.342227,1.20612 6.780628,8.67078 3.553594,10.87808 -1.117857,0.76454 -2.038177,2.69546 -2.045261,4.29092 -0.01473,2.97012 -3.761611,4.7963 -5.621007,2.73851 z m -11.369274,-7.77847 c 0,-3.17511 3.887684,-4.4989 5.784434,-1.96963 1.88361,2.5119 0.626837,4.24556 -3.077935,4.24556 -1.488552,0 -2.706499,-1.02418 -2.706499,-2.27593 z m 56.099346,-1.80862 c 0,-1.34791 -0.83042,-2.26692 -1.84537,-2.04227 -1.14679,0.25381 -1.84538,-1.43881 -1.84538,-4.47099 0,-3.73366 0.97125,-5.39466 4.13629,-7.07348 4.76549,-2.52776 8.41226,-0.44663 8.41226,4.80077 0,1.68719 0.59317,3.0676 1.31833,3.0676 2.26493,0 3.30883,5.38807 1.31509,6.7881 -3.38279,2.37545 -11.49122,1.62061 -11.49122,-1.06973 z m 16.89048,-3.31961 c 3.71216,-3.10729 8.20659,-3.07886 8.20659,0.0519 0,1.75197 -1.57845,2.43591 -5.53611,2.39875 -5.188,-0.0487 -5.35601,-0.20279 -2.67048,-2.45073 z m 11.43689,-0.33773 c 0.59422,-3.41418 5.27879,-4.73415 7.61726,-2.14621 1.25087,1.38421 1.11726,2.24614 -0.52586,3.39584 -3.71098,2.59654 -7.64014,1.90416 -7.0914,-1.24963 z m 11.90177,-0.10028 c -1.45813,-1.05616 -1.41178,-1.99241 0.22071,-4.46332 1.86102,-2.8165 2.45037,-2.89917 5.939,-0.83289 2.13015,1.26165 3.6404,3.07969 3.35621,4.04007 -0.64911,2.19308 -7.05478,3.03866 -9.51592,1.25614 z m 11.23286,-3.82511 c -2.30715,-2.55342 -2.56994,-3.7515 -1.21824,-5.55409 1.47821,-1.97116 2.33299,-1.94961 6.00412,0.15129 5.00479,2.8643 5.57641,6.51101 1.21822,7.77231 -1.92287,0.55648 -4.1568,-0.32517 -6.0041,-2.36949 z m -35.96086,-3.03707 c 0.50179,-0.89858 1.86958,-1.63381 3.0397,-1.63381 1.16997,0 2.12733,0.73523 2.12733,1.63381 0,0.89861 -1.36792,1.63382 -3.03983,1.63382 -1.67176,0 -2.62914,-0.73521 -2.1272,-1.63382 z m 42.90537,-3.61678 c -1.98976,-3.14402 -2.00806,-3.7908 -0.13876,-4.94809 2.79506,-1.73102 9.64273,0.18413 9.64273,2.69687 0,2.54252 -3.04811,5.868 -5.3786,5.868 -1.00949,0 -2.86564,-1.62756 -4.12463,-3.61678 z m -33.98454,0.46204 c -0.46724,-0.83651 -0.23413,-1.94172 0.51773,-2.45603 1.92554,-1.31701 6.21611,0.74623 5.22876,2.51432 -1.06927,1.91485 -4.66495,1.87836 -5.74649,-0.0584 z m -45.45923,-1.35948 c -4.442473,-1.07794 -3.307345,-9.39737 1.835196,-13.4499 4.530307,-3.57006 8.202173,-3.06846 6.815476,0.93102 -0.427685,1.23324 0.294074,2.90591 1.6037,3.71704 5.108448,3.16391 -3.398135,10.46548 -10.254372,8.80184 z m 55.97298,0.15375 c -0.54298,-0.60104 0.10177,-2.4253 1.43409,-4.05391 1.86781,-2.28422 2.03152,-3.48102 0.71584,-5.23542 -2.69954,-3.59988 -0.3819,-7.58991 4.40869,-7.58991 5.21309,0 5.67916,3.60359 0.94925,7.34039 -3.19545,2.52441 -3.21788,2.71024 -0.59037,4.8854 1.50228,1.24364 2.29343,3.04531 1.75827,4.00369 -1.07358,1.9225 -7.11664,2.37509 -8.67577,0.64976 z m -23.81771,-2.0929 c -0.97731,-1.7501 3.71924,-4.98342 7.23859,-4.98342 3.20858,0 2.89324,2.80816 -0.54402,4.84396 -3.55182,2.10374 -5.57421,2.14587 -6.69457,0.13953 z m 34.64726,-0.95016 c 0,-2.82484 3.52347,-4.84538 5.76996,-3.30881 2.30804,1.57869 0.14172,5.81082 -2.97533,5.81082 -1.53713,0 -2.79463,-1.12588 -2.79463,-2.50201 z m 103.34089,-2.85283 c 0,-3.2522 4.46979,-9.51439 6.02965,-8.4475 0.8071,0.55203 0.31757,2.9823 -1.15756,5.7457 -2.68095,5.02295 -4.87209,6.238 -4.87209,2.7018 z m -125.48537,-2.84933 c 0,-4.05034 6.64643,-7.96723 9.0345,-5.32429 2.52669,2.79621 -1.12022,8.62696 -5.39573,8.62696 -2.66752,0 -3.63877,-0.88161 -3.63877,-3.30267 z m 40.2275,1.52197 c -1.82795,-0.76064 -4.3192,-0.96011 -5.53611,-0.44326 -3.17434,1.34807 -2.72745,-2.10799 0.77358,-5.98258 2.33387,-2.58301 3.60615,-2.93804 5.82297,-1.62503 3.82185,2.26362 4.87458,4.45119 3.44996,7.16905 -0.83441,1.59179 -2.17475,1.85385 -4.5104,0.88182 z m 72.98393,0.55534 c -0.97171,-1.86736 4.55689,-15.11283 6.30823,-15.11283 2.05973,0 1.95285,1.13558 -0.87826,9.33984 -2.29579,6.65293 -4.01864,8.48467 -5.42997,5.77299 z m 6.36876,0.35598 c 0,-2.73529 4.52278,-12.20118 5.82975,-12.20118 2.2515,0 1.90825,2.91236 -0.98101,8.32548 -2.24442,4.20491 -4.84874,6.28659 -4.84874,3.8757 z M 100.20282,180.6181 c -3.599081,-0.90695 -3.224539,-3.52073 0.73814,-5.15086 3.56866,-1.4681 7.01241,-0.6877 7.01241,1.58907 0,2.09591 -4.80504,4.30406 -7.75055,3.56179 z m 54.49993,-1.50067 c -0.54122,-0.59907 -0.98411,-1.67602 -0.98411,-2.39323 0,-2.18746 5.98979,-5.00027 8.43587,-3.96149 2.02947,0.86189 1.98901,1.35714 -0.34414,4.21037 -2.6966,3.29767 -5.34374,4.09632 -7.10762,2.14435 z m 79.46591,-0.55922 c -1.32321,-2.36945 0.3695,-7.27065 3.64365,-10.54978 4.41369,-4.42062 6.02653,-1.72774 3.39902,5.67516 -2.23482,6.29638 -5.12969,8.30007 -7.04267,4.87462 z M 94.997082,173.38349 c -2.233927,-2.47225 0.351951,-6.24739 4.279209,-6.24739 3.133289,0 3.659439,3.26559 1.000339,6.20852 -2.213271,2.44942 -3.09564,2.45593 -5.279548,0.0389 z m 15.416698,0.8325 c -2.03212,-2.24905 -0.87662,-5.44606 1.9685,-5.44606 1.96834,0 2.9526,1.0892 2.9526,3.26763 0,3.14868 -2.88883,4.4275 -4.9211,2.17843 z m 116.4897,-5.69708 c -1.27742,-2.83387 -2.3225,-6.71397 -2.3225,-8.62247 0,-4.00702 3.86066,-10.73235 6.16089,-10.73235 1.49946,0 1.27832,2.3509 -1.07549,11.43674 -0.87145,3.3635 -0.71011,3.72403 0.91413,2.04227 2.86327,-2.96474 4.33456,-2.51237 4.33456,1.33277 0,4.05765 -2.54279,9.69552 -4.37281,9.69552 -0.72381,0 -2.36134,-2.31863 -3.63878,-5.15248 z m 36.28935,2.61683 c 0.28049,-1.60156 1.40381,-3.24135 2.49642,-3.64395 1.2705,-0.46823 1.80256,0.31737 1.4763,2.17993 -0.28065,1.60159 -1.40397,3.24137 -2.49642,3.64398 -1.27065,0.46823 -1.80256,-0.31736 -1.4763,-2.17996 z M 118.65655,169.3217 c -1.01495,-0.45324 -1.84537,-1.82911 -1.84537,-3.05746 0,-1.22837 -1.16259,-2.95937 -2.58352,-3.84666 -2.00128,-1.24965 -2.18744,-2.05623 -0.8257,-3.57873 1.36676,-1.52825 2.76245,-0.91606 6.27427,2.75212 6.2942,6.57458 5.74325,10.75084 -1.01968,7.73073 z m 138.40299,0.34201 c 0,-2.08448 3.59272,-9.06288 4.66586,-9.06288 1.68193,0 1.55925,2.82089 -0.28893,6.64268 -1.34032,2.77169 -4.37693,4.45075 -4.37693,2.4202 z m -152.49988,-3.56032 c -2.07596,-2.29743 -0.94749,-3.86873 2.77855,-3.86873 2.39455,0 3.58504,0.76001 3.19928,2.04229 -0.71055,2.36199 -4.459,3.50728 -5.97783,1.82644 z m 19.67862,-4.55283 c -0.7969,-2.31954 -2.16883,-4.21735 -3.04884,-4.21735 -0.88003,0 -1.18946,-0.73522 -0.68752,-1.63382 0.50179,-0.8986 2.88705,-1.63382 5.3005,-1.63382 4.85938,0 7.14529,3.76001 4.79399,7.88546 -2.40046,4.21148 -4.82632,4.05869 -6.35813,-0.40047 z m 62.54752,2.05032 c -0.60615,-1.08557 0.5176,-3.40491 2.61926,-5.40548 3.37157,-3.20965 3.50045,-3.80492 1.5327,-7.08459 -2.0779,-3.46335 -1.97323,-3.58052 3.19898,-3.58052 4.31743,0 5.34715,0.61356 5.34715,3.18645 0,1.75255 -1.16259,3.91742 -2.58351,4.81082 -2.13193,1.34038 -2.27616,2.18069 -0.82511,4.8065 0.96713,1.75018 1.35466,3.629 0.86112,4.17519 -1.56959,1.73707 -9.04689,1.06793 -10.15059,-0.90837 z m 64.36856,-0.23703 c 0,-1.17615 0.89506,-3.49319 1.98901,-5.14897 2.60301,-3.93968 4.66819,-0.58819 2.45612,3.98601 -1.79814,3.71832 -4.44513,4.41084 -4.44513,1.16296 z m -73.81495,-1.12919 c -1.21794,-0.87109 -4.7057,-1.59504 -7.75056,-1.6088 -5.53494,-0.0251 -7.48955,-2.56565 -3.33229,-4.33118 1.49208,-0.63367 1.91727,-2.20023 1.31626,-4.85018 -0.70818,-3.12315 -0.30826,-3.91421 1.97898,-3.91421 4.07178,0 4.92714,1.51099 2.90269,5.12745 -1.41118,2.52094 -1.33088,3.43571 0.40643,4.63186 1.35067,0.92988 2.87065,0.8424 4.04107,-0.23265 2.66723,-2.44978 6.34263,-0.42591 6.34263,3.49261 0,3.56669 -2.34053,4.23457 -5.90521,1.6851 z m 22.14448,-1.63381 c 0,-2.0196 0.98677,-3.27087 2.58354,-3.2761 1.97189,-0.007 2.66279,-1.55367 2.91862,-6.53529 0.28996,-5.64403 -0.0812,-6.52681 -2.74132,-6.52681 -2.19909,0 -2.82121,-0.73722 -2.18064,-2.58436 0.49278,-1.42139 0.89611,-2.89182 0.89611,-3.26764 0,-2.14501 9.05769,-0.16256 12.34938,2.70295 6.5493,5.70138 4.56471,19.48725 -2.8054,19.48725 -2.00143,0 -3.63878,0.73521 -3.63878,1.63381 0,0.8986 -1.66084,1.63382 -3.69075,1.63382 -2.70665,0 -3.69076,-0.87137 -3.69076,-3.26763 z m 42.81268,0.89377 c 0,-2.72931 3.77651,-9.06287 5.40398,-9.06287 2.40991,0 2.42808,0.38564 0.26411,5.64149 -1.41548,3.43831 -5.66809,6.00526 -5.66809,3.42138 z m -91.27851,-3.00833 c -0.94101,-1.25478 -2.12987,-4.6 -2.642,-7.43382 -0.85905,-4.75338 -0.51168,-5.34633 4.48514,-7.65689 2.97888,-1.37748 6.05135,-2.07013 6.82759,-1.53922 2.05397,1.40488 1.72919,5.66962 -0.43402,5.69894 -1.3402,0.0181 -1.38153,0.35371 -0.15119,1.22536 0.93185,0.66019 1.92835,3.40601 2.21446,6.10182 0.47005,4.42918 0.0812,4.94885 -4.03443,5.39333 -2.5915,0.27988 -5.29209,-0.49144 -6.26555,-1.78952 z m 83.45677,-0.55099 c -1.4599,-1.61569 1.77614,-7.13736 4.18281,-7.13736 2.56638,0 2.66811,0.80322 0.63435,5.00886 -1.56722,3.24066 -3.17153,3.9496 -4.81716,2.1285 z m -56.62608,-8.02475 c -0.48069,-1.38665 -0.50992,-2.92423 -0.0649,-3.41681 1.46892,-1.62558 6.93697,1.2101 6.93697,3.59738 0,3.14888 -5.77011,2.99726 -6.87202,-0.18057 z m -12.79909,-6.72293 c -1.49562,-1.65528 1.98993,-5.46024 5.00187,-5.46024 3.53632,0 5.25813,3.25124 2.67903,5.0591 -2.42289,1.69833 -6.32462,1.90209 -7.6809,0.40114 z m 26.06629,-1.50238 c -1.1846,-3.4165 2.75535,-7.62563 5.89131,-6.29384 3.32862,1.41362 3.13417,5.09919 -0.37896,7.17993 -3.80443,2.25332 -4.46034,2.14789 -5.51235,-0.88609 z M 177.59157,139.892 c 0.32228,-1.87955 2.05501,-3.17773 4.68799,-3.51235 3.37304,-0.42868 4.07827,0.0428 3.6655,2.45073 -0.32228,1.87953 -2.05501,3.17773 -4.68799,3.51235 -3.3732,0.42867 -4.07842,-0.043 -3.6655,-2.45073 z"
       id="path23" /></g></svg>
